#!OML:ASF E:\acrobat2\Project_11_07_03\Capture day 1\Session 1\Acrobat.ASF
:FULLY-SPECIFIED
:DEGREES
2501
root 11.1529 4.15172 10.6304 -82.5439 2.91446 168.791
lowerback -10.966258168242558 -2.18426499624528 -4.182087336668122
upperback -9.555996525977164 -10.061055112379305 11.137407823889529
thorax -4.590753953319136 -5.235363305350219 10.215727826762132
lowerneck -5.27864608217001 -16.533893148143573 14.638114883791534
upperneck -31.03509691709038 -25.078477165457226 0.8002010267741864
head -11.112592383395887 -7.085846565622045 -1.751831862352588
rclavicle 2.38542e-15 -1.58034e-14
rhumerus -14.45166116970939 -38.113140100688234 45.94652188627129
rradius 47.56038954325634
rwrist -27.174036708924934
rhand -26.977396184309313 -36.02408083289543
rfingers 6.866216109398134
rthumb 6.982614160969066 -69.91299989536182
lclavicle 2.38542e-15 -1.58034e-14
lhumerus -38.82467506518961 9.245954673209676 -8.560661993457586
lradius 39.121165791292356
lwrist 29.6583164709708
lhand -14.472581456548381 -29.215211219342823
lfingers 11.232330142903434
lthumb 7.771481926334788 -6.096626456076607
rfemur 4.2300008496680634 8.981984839300763 -3.0232739326036744
rtibia 23.175833416684917
rfoot 10.977463395062127 -13.054780466410195
rtoes 33.445120012894726
lfemur -3.819843392401374 -14.377218343517566 0.8336559133259773
ltibia 18.35900712329927
lfoot 52.39517086102613 0.9213854652644781
ltoes 4.47688
2502
root 11.1529 4.15172 10.6304 -82.5439 2.91446 168.791
lowerback -11.05481914241497 -2.1712781006038386 -4.185441849354012
upperback -9.468437416914512 -10.081039629121847 11.156714022751588
thorax -4.492925998827125 -5.267425863784016 10.159598350001604
lowerneck -5.316359677079219 -16.631543045525376 14.53901748916682
upperneck -31.002967518855232 -24.997534811749034 0.8600450323875468
head -11.184619388701464 -7.149890503688788 -1.7677215200725358
rclavicle 2.38542e-15 -1.58034e-14
rhumerus -17.160111324743344 -41.858177433673305 41.928626536585426
rradius 48.65621745693962
rwrist -27.183885452968415
rhand -27.049466951606135 -36.08112025894205
rfingers 6.836489275004852
rthumb 6.909074665956256 -69.91081149333299
lclavicle 2.38542e-15 -1.58034e-14
lhumerus -40.22058870813291 12.156672883664653 -4.496466400140049
lradius 40.908941713946206
lwrist 29.722912497943074
lhand -14.466518292272204 -29.166924792509853
lfingers 11.248836400818403
lthumb 7.719868111561015 -6.011321069309186
rfemur 4.582597590880402 9.328028408385677 -3.341605096823701
rtibia 19.178669483203997
rfoot 11.453042467943272 -12.651370204891142
rtoes 33.00594540832052
lfemur -3.549862521416711 -14.382743960732599 1.3162493824728831
ltibia 14.995064158967748
lfoot 52.5652447324481 0.633607552278423
ltoes 4.47688
2503
root 11.1529 4.15172 10.6304 -82.5439 2.91446 168.791
lowerback -10.974601961713851 -2.105945997489772 -4.210552466119978
upperback -9.404645079832171 -10.028085221484357 11.155515429181714
thorax -4.443605420174133 -5.2366784287759085 10.138469657334081
lowerneck -5.254073489202047 -16.605876925305342 14.603739891671617
upperneck -30.93499337511163 -24.98753540632849 0.7618614512810541
head -11.134576855094597 -7.0659390146215415 -1.815355224838751
rclavicle 2.38542e-15 -1.58034e-14
rhumerus -14.933989352292052 -37.38400816475279 37.54215214876808
rradius 45.99330417555965
rwrist -27.27798364348338
rhand -27.085470338456748 -36.106316551925964
rfingers 6.835926528455477
rthumb 6.947250477794937 -69.92035022648905
lclavicle 2.38542e-15 -1.58034e-14
lhumerus -36.87041225351831 9.979038308618762 -7.809528778814354
lradius 40.7121648818576
lwrist 29.757102250089652
lhand -14.5328892854506 -29.085144063810542
lfingers 11.258157371312741
lthumb 7.703941854427927 -6.009526766103479
rfemur 5.07785565085231 9.418853095864874 -2.945237434961113
rtibia 18.491435019215118
rfoot 11.553974048341384 -12.844438538556643
rtoes 32.63519067599131
lfemur -3.0999814635207645 -14.130033648613189 0.8361697754774863
ltibia 13.807150712846507
lfoot 52.21789113688558 0.9473177835561406
ltoes 4.47688
2504
root 11.1529 4.15172 10.6304 -82.5439 2.91446 168.791
lowerback -10.99282926659716 -2.188219895412629 -4.264836382233097
upperback -9.42009954197182 -10.000428570736487 11.055987232440437
thorax -4.356126524088978 -5.303658577559372 10.234299724207153
lowerneck -5.321060975787955 -16.583053206608998 14.559529876607307
upperneck -30.868086778091246 -24.99550327552487 0.8607137496218809
head -11.177945638108545 -7.150419798878502 -1.881221002648917
rclavicle 2.38542e-15 -1.58034e-14
rhumerus -17.81735514812756 -36.68001058948495 36.6308070152522
rradius 43.842883408413705
rwrist -27.331007383024115
rhand -27.116086569557535 -36.13965465217426
rfingers 6.899100068812331
rthumb 7.027852069115876 -69.89386097332547
lclavicle 2.38542e-15 -1.58034e-14
lhumerus -35.70601798379449 5.166303951541736 -11.723380018367244
lradius 38.80081445392375
lwrist 29.828472550535647
lhand -14.553176510423556 -29.016603531485373
lfingers 11.275456225310522
lthumb 7.628733513784628 -5.987846029932952
rfemur 5.5027363627989025 9.330792782823877 -2.5013563836694805
rtibia 21.37961068721938
rfoot 11.768304637628017 -12.940656156438092
rtoes 32.75812732705685
lfemur -2.687504668308484 -14.580719744059127 1.1710898123197904
ltibia 11.323784991571038
lfoot 51.81917066013446 0.6311529058530037
ltoes 4.47688
2505
root 11.1529 4.15172 10.6304 -82.5439 2.91446 168.791
lowerback -11.030827037903645 -2.2690897545271724 -4.303416928091223
upperback -9.490742829235206 -9.995275973161323 10.987066154555096
thorax -4.376771545211846 -5.383725106673545 10.193821628125738
lowerneck -5.260043007574627 -16.543052030880727 14.543986660827372
upperneck -30.84421757248944 -24.921295837807666 0.7811848870529381
head -11.096524751068918 -7.15009537039111 -1.7922369682207195
rclavicle 2.38542e-15 -1.58034e-14
rhumerus -18.77640619665702 -36.460175390627086 32.698319514463726
rradius 42.82182028116294
rwrist -27.313999582289686
rhand -27.071621441955106 -36.1510383075076
rfingers 6.859774803668538
rthumb 7.102186644226436 -69.87359950309512
lclavicle 2.38542e-15 -1.58034e-14
lhumerus -35.91043756960478 6.631755578981414 -15.405985589306443
lradius 36.27765044025636
lwrist 29.87752739058291
lhand -14.4843969334472 -28.955293078939214
lfingers 11.195126696339512
lthumb 7.656636691668327 -6.05673484277602
rfemur 5.200765781008699 9.017554974525302 -2.3564794362155035
rtibia 24.047626679570076
rfoot 11.705092867728245 -13.241114490768421
rtoes 32.89568650881409
lfemur -2.3822690939278046 -14.81540402505729 0.9909178801933798
ltibia 8.420622506375704
lfoot 51.861571442677366 0.18219607167913743
ltoes 4.47688
2506
root 11.1529 4.15172 10.6304 -82.5439 2.91446 168.791
lowerback -11.048946225997117 -2.239943564258683 -4.323689971117815
upperback -9.480385370694915 -9.932941680291117 11.064173548463447
thorax -4.39396916171641 -5.457223694494178 10.10447411746286
lowerneck -5.316870239210698 -16.628876286511677 14.641552066900214
upperneck -30.744300985729303 -24.946494430381538 0.7396764933475535
head -11.058006646171096 -7.152126770397956 -1.7252912818708523
rclavicle 2.38542e-15 -1.58034e-14
rhumerus -18.06647404249756 -39.757279113465486 28.216542220891462
rradius 42.39482412522873
rwrist -27.29784592618556
rhand -27.139347600234416 -36.07210072350878
rfingers 6.773363213520753
rthumb 7.1426231779930855 -69.87375968538667
lclavicle 2.38542e-15 -1.58034e-14
lhumerus -32.94458151257 10.667550387236375 -18.442634085216344
lradius 37.8121152235616
lwrist 29.86358727315258
lhand -14.4480849840957 -28.938810807824193
lfingers 11.144128419536303
lthumb 7.57349413624233 -6.100658565650462
rfemur 5.620268118368856 9.353416631097149 -2.3564213561370413
rtibia 25.41935929003086
rfoot 12.088825767828222 -13.29857385821566
rtoes 32.973849918409776
lfemur -2.2573753715538003 -14.490862470819534 0.8616057172252787
ltibia 4.000523595916165
lfoot 51.979058482953 0.6291553455020585
ltoes 4.47688
